<?xml version="1.0" encoding="iso-8859-1"?>
<!-- Uploaded to: SVG Repo, www.svgrepo.com, Generator: SVG Repo Mixer Tools -->
<!DOCTYPE svg PUBLIC "-//W3C//DTD SVG 1.1//EN" "http://www.w3.org/Graphics/SVG/1.1/DTD/svg11.dtd">
<svg height="800px" width="800px" version="1.1" id="Capa_1" xmlns="http://www.w3.org/2000/svg" xmlns:xlink="http://www.w3.org/1999/xlink" 
	 viewBox="0 0 160.96 160.96" xml:space="preserve">
<path style="fill:#000002;" d="M102.387,160.96c-1.439,0-2.888-0.173-4.322-0.521c-4.715-1.146-8.702-4.06-11.227-8.203
	c-2.524-4.145-3.283-9.024-2.137-13.739c0.946-3.896,3.099-7.294,6.156-9.781L18.96,10.672c-0.518-0.666-5.224-6.327-14.937-5.607
	C2.648,5.17,1.447,4.133,1.344,2.756C1.241,1.38,2.275,0.18,3.652,0.078c13.002-0.966,19.154,7.375,19.41,7.73
	c0.037,0.052,0.072,0.105,0.105,0.159l71.96,118.147c2.217-0.967,4.584-1.474,6.982-1.501L65.933,65.217
	c-0.345-0.566-0.451-1.247-0.294-1.891c0.156-0.645,0.563-1.2,1.129-1.545l45.051-27.439c1.179-0.721,2.717-0.344,3.436,0.834
	l38.494,63.2c0.345,0.566,0.451,1.247,0.294,1.891c-0.156,0.645-0.563,1.2-1.129,1.545l-41.45,25.246
	c1.891,1.092,3.568,2.52,4.961,4.23l39.397-23.996c1.178-0.721,2.717-0.344,3.436,0.834c0.718,1.18,0.344,2.718-0.835,3.436
	l-39.399,23.998c3.554,8.184,0.611,17.971-7.22,22.74C108.92,160.057,105.68,160.96,102.387,160.96z M102.33,129.614
	c-2.387,0-4.735,0.654-6.825,1.927c-3.003,1.829-5.115,4.719-5.945,8.137c-0.83,3.417-0.28,6.954,1.549,9.957
	c3.776,6.201,11.893,8.173,18.094,4.396c6.199-3.776,8.172-11.89,4.399-18.089c-0.001-0.002-0.002-0.004-0.003-0.005
	c-1.83-3.004-4.719-5.115-8.137-5.945C104.424,129.739,103.373,129.614,102.33,129.614z M71.504,64.752l35.893,58.93l40.781-24.839
	l-35.893-58.93L71.504,64.752z M63.129,58.303c-0.844,0-1.667-0.427-2.138-1.199L43.534,28.443
	c-0.345-0.566-0.451-1.247-0.294-1.891c0.156-0.645,0.563-1.2,1.129-1.545L78.744,4.07c1.179-0.72,2.717-0.345,3.436,0.834
	l17.458,28.661c0.345,0.566,0.451,1.247,0.294,1.891c-0.156,0.645-0.563,1.2-1.129,1.545L64.426,57.938
	C64.021,58.186,63.571,58.303,63.129,58.303z M49.105,27.977l14.856,24.391l30.106-18.337L79.21,9.64L49.105,27.977z"/>
</svg>